<svg xmlns="http://www.w3.org/2000/svg" width="820" height="180" viewBox="0 0 820 180" role="img" aria-labelledby="title desc">
  <title id="title">Caffeine Atlas logo</title>
  <desc id="desc">A teal CA icon with coffee and genetics details next to the Caffeine Atlas wordmark.</desc>
  <rect width="820" height="180" fill="#ffffff"/>
  <g transform="translate(28 26)">
    <rect width="128" height="128" rx="28" fill="#014f57"/>
    <path d="M45.6 87.2c-20.5 0-34.8-14.3-34.8-35.2S25.1 16.8 45.9 16.8c17.9 0 30.8 9.9 33.8 25.5H57.4c-2.2-5.5-6.3-8.3-12.1-8.3-8.7 0-14.1 7-14.1 18s5.6 18 14.4 18c6 0 10.1-3 12.1-8.7H80c-3.2 16.1-16.2 25.9-34.4 25.9Z" fill="#ffffff"/>
    <path d="M90.5 18h23.4l31.2 68h-22.2l-4.7-11.4H86.7L82 86H59.8L90.5 18Zm20.9 40.1-8.8-21.6-8.9 21.6h17.7Z" fill="#ffffff"/>
    <g transform="translate(58 51)">
      <ellipse cx="0" cy="0" rx="15" ry="20" transform="rotate(30)" fill="#6f5536" stroke="#ffffff" stroke-width="4"/>
      <path d="M-7 13C-1 4 3-5 6-15" fill="none" stroke="#ffffff" stroke-width="3" stroke-linecap="round"/>
    </g>
    <g transform="translate(105 44)" stroke="#9bd7d8" stroke-width="4" stroke-linecap="round" fill="none">
      <path d="M0 0c17 17 17 46 0 64"/>
      <path d="M28 0C11 17 11 46 28 64"/>
      <path d="M8 15h12"/>
      <path d="M5 32h18"/>
      <path d="M8 49h12"/>
    </g>
  </g>
  <g fill="#15202b" font-family="-apple-system, BlinkMacSystemFont, 'Segoe UI', 'Noto Sans KR', Arial, sans-serif" font-weight="900">
    <text x="194" y="111" font-size="58" letter-spacing="0">Caffeine Atlas</text>
  </g>
</svg>
